# xmcd
#
# Track frame offsets:
#	150
#	17597
#	33935
#	46572
#	66870
#	80045
#	93352
#	105315
#	122917
#	136217
#	153737
#	167742
#	179465
#	191412
#	204342
#	218435
#	234585
#	246140
#
# Disc length: 3438 seconds
#
# Revision: 1
# Processed by: cddbd v1.4b41PL2 Copyright (c) Steve Scherf et al.
# Submitted via: audiograbber 1.80
#
DISCID=e60d6c12
DTITLE=Various Artist - Selection of ballads CD2
DYEAR=1900
DGENRE=
TTITLE0=Night in white satin
TTITLE1=Unchained melody
TTITLE2=Yesterday
TTITLE3=House of the rising sun
TTITLE4=El condor pasa
TTITLE5=Singin' in the rain
TTITLE6=The great pretender
TTITLE7=The shadow of your smile
TTITLE8=Rhapsody in blue
TTITLE9=Downtown
TTITLE10=Stranger in paradise
TTITLE11=The godfather
TTITLE12=Roses are red (My Love)
TTITLE13=September song
TTITLE14=Delilah
TTITLE15=Imagine
TTITLE16=River of no return
TTITLE17=Dancing in the street
EXTD=
EXTT0=
EXTT1=
EXTT2=
EXTT3=
EXTT4=
EXTT5=
EXTT6=
EXTT7=
EXTT8=
EXTT9=
EXTT10=
EXTT11=
EXTT12=
EXTT13=
EXTT14=
EXTT15=
EXTT16=
EXTT17=
PLAYORDER=
